{"glyphs":{":":{"x_min":0,"x_max":273,"ha":273,"o":"m 38 91 q 38 136 69 168 q 100 199 146 199 q 191 199 222 168 q 254 136 254 90 q 254 45 222 14 q 190 -18 146 -18 q 99 -18 68 16 q 38 46 38 91 z m 36 359 q 36 404 68 436 q 100 468 146 468 q 189 468 222 436 q 255 404 255 360 q 255 316 224 284 q 192 251 147 251 q 101 251 68 282 q 36 314 36 359 z"},"$":{"x_min":0,"x_max":586,"ha":586,"o":"m -14 128 l 20 161 q 39 142 64 124 q 90 105 119 91 q 163 69 190 61 q 217 53 246 53 l 246 267 l 228 279 q 146 330 110 367 q 73 404 55 453 q 47 472 43 496 q 39 520 39 541 q 39 626 93 679 q 147 732 231 732 l 249 730 l 249 797 l 287 797 l 287 730 q 302 730 310 728 q 318 726 321 726 l 327 725 l 343 721 l 353 720 q 390 720 400 737 l 444 737 l 506 610 l 464 586 q 448 604 426 620 q 403 637 378 649 q 333 670 308 670 q 301 670 287 668 l 287 506 l 309 494 l 329 484 l 357 468 q 440 418 472 394 q 505 369 523 342 q 569 278 569 207 q 569 163 549 118 q 520 52 458 18 q 395 -16 295 -16 l 283 -17 l 283 -91 l 245 -91 l 245 -12 l 235 -11 l 225 -9 l 211 -6 l 197 -3 l 184 0 l 176 2 q 166 4 162 4 q 138 4 127 -15 l 81 -15 z m 293 54 q 342 60 361 104 q 370 125 370 144 q 370 197 302 236 l 292 242 l 284 245 l 284 53 z m 241 664 l 233 661 l 224 656 q 187 635 187 605 q 187 577 221 547 l 240 533 l 244 530 l 248 527 l 248 666 z"},"?":{"x_min":0,"x_max":397,"ha":397,"o":"m 60 93 q 60 137 92 168 q 123 200 168 200 q 214 200 246 168 q 277 137 277 93 q 277 48 244 18 q 212 -13 168 -13 q 124 -13 92 18 q 60 49 60 93 z m 0 617 l 0 721 l 21 725 q 77 735 128 735 q 230 735 291 694 q 352 653 372 578 q 379 551 379 524 q 379 460 340 411 q 301 362 230 339 l 213 334 l 203 332 l 203 225 l 131 225 l 131 377 l 136 384 l 139 390 q 145 405 148 418 q 152 430 155 459 l 158 503 q 158 583 140 624 q 123 664 98 669 q 94 670 86 670 q 63 670 50 644 q 44 632 43 624 l 43 620 z"},"'":{"x_min":0,"x_max":224,"ha":224,"o":"m 29 468 l 51 720 l 195 720 l 173 468 z"},"a":{"x_min":0,"x_max":613,"ha":613,"o":"m 349 257 l 349 270 l 347 287 q 340 343 306 374 q 273 405 220 405 q 213 405 205 404 q 197 403 183 402 q 169 400 151 391 q 107 370 91 333 l 51 345 l 88 448 q 121 452 151 454 q 181 456 217 456 q 410 456 486 405 q 562 354 562 228 l 562 109 l 562 90 q 562 65 589 51 l 594 49 l 599 48 l 599 0 l 374 0 l 347 45 q 308 -13 215 -13 q 188 -13 155 -7 q 104 2 72 32 q 39 63 29 111 q 27 119 26 130 q 25 140 25 148 q 25 215 79 254 q 133 292 233 292 q 263 292 292 283 q 322 274 349 257 z m 346 202 q 332 209 318 212 q 305 215 298 215 q 249 215 240 162 l 240 135 q 249 95 288 88 q 309 84 337 100 l 342 103 l 345 106 l 349 110 l 349 200 z"},"L":{"x_min":0,"x_max":569,"ha":569,"o":"m 11 0 l 11 47 l 16 48 l 23 50 q 57 64 57 108 l 57 615 q 57 660 24 672 l 18 674 l 12 676 l 12 720 l 335 720 l 335 675 l 330 674 l 324 672 q 291 659 291 614 l 291 67 l 383 67 q 453 67 488 85 q 522 103 533 142 l 576 142 l 576 0 z"},"3":{"x_min":0,"x_max":653,"ha":653,"o":"m 19 0 l 19 128 l 69 132 l 74 126 l 79 120 q 120 78 175 56 q 211 42 241 42 q 298 42 334 85 q 369 128 369 201 q 369 361 194 361 l 174 362 l 161 362 l 161 411 l 176 411 q 248 411 282 436 q 317 460 328 516 q 329 522 330 540 q 331 559 331 560 q 326 606 302 632 q 277 659 236 659 q 201 659 164 642 q 126 624 107 594 l 103 587 l 99 580 l 51 580 l 51 708 l 100 708 q 103 688 127 688 q 136 688 141 690 l 147 692 l 172 699 l 208 709 q 273 725 337 725 q 348 725 360 724 q 373 723 380 723 q 466 714 511 683 q 556 652 570 595 q 576 569 576 546 q 576 483 534 442 q 491 402 414 393 l 390 392 l 418 389 q 498 376 546 338 q 594 299 607 240 q 609 233 610 220 q 612 207 612 194 q 612 104 539 47 q 460 -15 320 -15 q 270 -15 211 -6 q 200 -5 184 -2 q 168 2 159 4 l 150 6 l 131 11 q 115 15 104 15 q 92 15 82 10 q 73 6 67 0 z"},";":{"x_min":0,"x_max":274,"ha":274,"o":"m 22 -95 l 32 -90 q 76 -67 81 -29 q 82 -24 82 -14 q 82 6 54 39 q 43 53 39 77 q 38 85 38 89 q 38 110 48 133 q 65 174 107 190 q 126 198 149 198 q 193 198 224 168 q 256 137 256 91 q 256 34 215 -17 q 169 -75 79 -116 l 48 -129 z m 38 359 q 38 404 70 436 q 102 468 148 468 q 191 468 222 436 q 254 405 254 359 q 254 315 224 284 q 193 252 148 252 q 102 252 70 283 q 38 314 38 359 z"},"J":{"x_min":0,"x_max":478,"ha":478,"o":"m -14 94 l 17 128 l 20 122 l 23 116 l 29 109 q 49 81 81 75 q 95 73 101 73 q 178 73 189 176 l 190 199 l 190 208 l 190 250 l 190 612 q 190 644 178 656 q 167 668 153 672 l 148 673 l 148 720 l 467 720 l 467 673 q 449 673 436 657 q 424 641 424 613 l 424 232 q 424 -18 197 -18 q 120 -18 66 12 q 12 41 -14 94 z"},"V":{"x_min":0,"x_max":666,"ha":666,"o":"m -29 673 l -29 720 l 294 720 l 294 672 l 289 671 q 267 662 267 641 q 267 629 273 611 l 414 193 l 563 612 q 569 629 569 641 q 569 663 541 672 l 536 673 l 536 720 l 695 720 l 695 673 l 689 672 l 683 669 q 647 657 632 612 l 416 0 l 234 0 l 28 611 q 17 643 2 656 q -6 664 -18 669 l -24 671 z"},"\"":{"x_min":0,"x_max":426,"ha":426,"o":"m 29 468 l 51 720 l 195 720 l 173 468 z m 231 468 l 253 720 l 397 720 l 375 468 z"},"7":{"x_min":0,"x_max":654,"ha":654,"o":"m 42 554 l 152 721 l 585 721 l 619 686 l 572 590 q 490 421 454 336 q 411 233 394 159 q 377 85 377 0 l 144 0 q 166 57 188 104 q 209 151 238 202 q 273 265 305 314 q 334 358 437 508 l 494 596 l 477 592 l 464 589 q 448 586 423 583 q 398 580 375 580 q 363 580 358 580 q 315 580 294 582 q 263 587 241 590 l 218 591 q 131 591 87 537 z"},"S":{"x_min":0,"x_max":586,"ha":586,"o":"m -14 128 l 20 161 q 40 140 64 123 q 88 106 121 90 q 161 70 196 60 q 231 51 262 51 q 296 51 320 62 q 344 74 358 97 q 371 120 371 142 q 371 190 300 236 l 294 239 l 228 279 q 139 332 96 382 q 54 432 44 490 q 39 520 39 541 q 39 629 94 682 q 150 736 244 736 q 263 736 273 735 l 296 732 l 308 729 l 321 726 l 330 724 l 343 722 l 355 720 q 388 717 400 737 l 444 737 l 506 610 l 464 586 q 450 601 434 614 q 417 627 396 639 q 337 673 281 673 q 271 673 262 673 q 259 673 243 669 q 183 657 183 610 q 183 591 193 577 q 203 563 211 556 q 219 548 240 535 l 260 522 l 282 510 l 328 484 l 351 471 l 413 434 q 490 388 530 330 q 569 271 569 207 q 569 163 549 118 q 521 55 459 19 q 397 -17 308 -17 q 286 -17 260 -14 l 225 -9 l 211 -6 l 197 -3 l 184 0 l 176 2 q 166 4 162 4 q 138 4 127 -15 l 81 -15 z"},"}":{"x_min":0,"x_max":367,"ha":367,"o":"m 29 -122 l 29 -36 l 42 -36 q 72 -36 85 -25 q 98 -14 98 12 l 98 266 q 98 295 115 318 q 132 342 161 354 l 187 360 l 161 366 q 132 378 115 402 q 98 425 98 454 l 98 708 q 98 734 86 745 q 74 756 42 756 l 29 756 l 29 842 l 172 842 q 219 842 245 816 q 271 790 271 742 l 271 432 q 271 401 290 380 q 310 360 338 360 q 310 360 290 340 q 271 319 271 288 l 271 -22 q 271 -70 245 -96 q 219 -122 172 -122 z"},"Z":{"x_min":0,"x_max":653,"ha":653,"o":"m -22 0 l 318 652 l 291 652 l 274 651 q 204 651 150 629 q 103 610 66 573 l 31 603 l 128 720 l 612 720 l 273 65 l 337 65 l 375 66 q 450 66 500 82 q 550 98 601 131 l 619 142 l 649 111 l 539 0 z"},"x":{"x_min":0,"x_max":580,"ha":580,"o":"m -14 0 l -14 43 l -10 44 l 0 46 q 33 54 58 81 l 75 101 l 81 108 l 175 219 l 78 347 l 60 372 l 49 384 q 32 400 11 408 l 6 410 l 1 412 l 1 454 l 337 454 l 337 411 l 333 409 q 322 404 322 393 q 322 380 338 357 l 344 348 l 369 316 l 396 348 l 403 356 q 421 380 421 393 q 421 404 406 409 l 402 411 l 402 454 l 555 454 l 555 412 l 550 411 l 543 409 q 526 403 514 396 q 502 388 488 374 l 466 348 l 401 273 l 526 108 l 546 81 q 567 54 586 46 l 590 45 l 594 43 l 594 0 l 267 0 l 267 45 q 280 48 280 63 q 280 73 273 84 l 257 108 l 207 176 l 149 108 l 141 98 q 125 78 125 65 q 125 53 140 47 l 145 45 l 145 0 z"},")":{"x_min":0,"x_max":294,"ha":294,"o":"m -7 -96 l -7 -56 q 56 -28 76 41 q 96 110 96 323 l 96 397 q 96 613 76 681 q 57 749 -7 777 l -7 817 l 23 805 q 129 761 186 681 q 244 601 258 474 q 262 438 264 406 q 266 375 266 341 q 266 170 205 68 q 144 -35 23 -85 z"},"&":{"x_min":0,"x_max":772,"ha":772,"o":"m 254 418 l 242 455 l 229 498 l 227 505 l 221 535 q 218 553 218 570 q 218 646 266 689 q 314 732 401 732 q 421 732 432 731 q 446 731 462 727 q 479 723 494 719 l 508 716 l 514 715 l 524 715 q 537 715 545 718 q 553 722 556 728 l 558 734 l 608 734 l 671 609 l 627 585 l 606 603 l 577 629 l 569 635 q 565 640 559 643 q 553 646 548 650 q 517 667 487 667 q 463 667 448 654 q 433 641 433 619 q 433 615 435 605 l 441 584 l 449 556 l 558 213 l 574 239 q 580 249 588 264 q 595 279 599 290 q 612 326 612 347 q 612 374 589 380 l 589 426 l 764 426 l 764 381 l 755 380 q 732 378 716 366 q 701 353 683 322 q 679 314 676 307 q 654 261 640 229 q 632 210 621 193 q 607 171 582 136 l 584 130 l 586 124 q 596 101 618 88 q 632 79 642 78 q 653 76 662 76 q 701 76 735 123 l 740 130 l 772 96 l 767 89 l 764 83 q 732 35 669 7 q 624 -14 561 -14 q 507 -14 475 -6 q 443 3 418 22 q 393 6 363 -4 q 333 -13 292 -13 q 284 -14 276 -14 q 269 -15 259 -15 q 249 -15 240 -15 q 228 -13 222 -13 q 124 -2 70 50 q 17 101 17 186 q 17 198 18 212 q 19 225 22 239 q 34 303 83 347 q 132 391 221 412 l 239 416 z m 266 356 l 260 354 l 238 339 q 222 324 214 306 q 206 289 206 260 q 206 244 209 221 q 212 198 223 164 q 234 131 246 111 q 258 91 273 80 q 302 59 331 59 q 342 59 356 62 l 365 65 l 369 66 l 373 68 q 362 84 357 96 q 352 108 342 138 l 272 358 z"},"_":{"x_min":0,"x_max":418,"ha":418,"o":"m 29 -43 l 29 0 l 389 0 l 389 -43 z"},"v":{"x_min":0,"x_max":541,"ha":541,"o":"m -22 411 l -22 454 l 289 454 l 289 410 l 285 409 q 260 402 260 378 q 260 367 268 346 l 352 134 l 438 345 q 447 368 447 380 q 447 400 426 409 l 422 410 l 422 454 l 563 454 l 563 411 l 557 410 l 551 408 q 522 397 509 373 l 497 345 l 353 0 l 169 0 l 34 346 l 25 368 l 23 373 l 17 384 q 6 400 -12 407 l -17 409 z"},"O":{"x_min":0,"x_max":930,"ha":930,"o":"m 32 356 q 32 393 42 436 q 77 578 184 658 q 291 738 455 738 q 657 738 778 636 q 899 533 899 371 q 899 320 888 273 q 864 171 785 95 q 724 36 648 11 q 571 -14 453 -14 q 253 -14 142 86 q 32 187 32 356 z m 263 333 q 295 259 343 197 q 400 122 454 87 q 507 52 557 52 q 581 52 602 59 q 652 76 681 116 q 710 157 710 220 q 710 280 682 351 q 651 430 589 517 q 547 576 514 606 q 480 636 445 652 q 410 667 375 667 q 320 667 276 632 q 231 596 220 541 q 217 526 217 524 q 216 517 216 504 q 216 470 226 432 q 237 394 263 333 z"},"(":{"x_min":0,"x_max":295,"ha":295,"o":"m 302 816 l 302 777 q 241 755 221 690 q 198 614 198 404 l 198 316 q 198 104 219 34 q 240 -35 302 -57 l 302 -96 q 176 -67 104 48 q 29 168 29 360 q 29 552 104 672 q 176 787 302 816 z"},"C":{"x_min":0,"x_max":828,"ha":828,"o":"m 731 720 l 780 720 l 780 590 l 731 590 q 684 636 611 656 q 553 672 499 672 q 393 672 331 609 q 269 546 269 435 q 269 392 272 357 q 276 322 287 289 q 325 172 417 113 q 505 57 633 57 q 659 57 691 65 q 755 78 805 105 l 828 63 q 752 22 640 0 q 596 -8 590 -9 q 560 -14 537 -14 q 32 -14 32 359 q 32 528 150 632 q 267 736 471 736 q 518 736 569 730 q 620 723 658 714 l 662 713 l 681 708 q 696 705 705 705 q 718 705 728 716 z"},"W":{"x_min":0,"x_max":942,"ha":942,"o":"m -22 673 l -22 720 l 305 720 l 305 672 l 300 670 q 269 661 269 636 q 269 627 274 610 l 401 203 l 524 553 l 583 553 l 692 210 l 826 611 q 829 618 830 625 q 831 631 831 637 q 831 662 797 671 l 792 672 l 792 720 l 964 720 l 964 672 l 958 671 l 951 669 q 914 655 899 611 l 688 0 l 513 0 l 460 175 l 399 0 l 222 0 l 29 611 q 14 656 -13 669 l -17 671 z"},"A":{"x_min":0,"x_max":686,"ha":686,"o":"m -14 0 l -14 46 l 6 55 q 18 64 24 72 q 30 80 41 106 l 54 138 l 265 720 l 429 720 l 641 135 l 653 107 q 669 68 687 55 l 700 46 l 700 0 l 367 0 l 367 46 l 375 47 q 408 55 408 87 q 408 102 400 128 l 369 219 l 154 219 l 121 126 q 115 108 115 94 q 115 64 150 49 l 156 47 l 156 0 z m 346 287 l 264 527 l 179 287 z"},"f":{"x_min":0,"x_max":328,"ha":328,"o":"m -4 403 l -4 454 l 52 454 l 52 502 l 53 535 q 53 637 114 686 q 175 735 292 735 q 311 735 322 734 q 332 732 351 727 l 360 724 l 371 721 l 371 628 l 325 628 l 323 639 l 320 650 q 317 665 310 674 q 304 682 292 682 q 283 682 277 676 q 274 671 272 667 q 269 661 268 652 l 267 644 l 266 634 l 266 614 l 266 454 l 343 454 l 343 403 l 265 403 l 265 108 l 265 90 l 265 85 q 268 62 289 51 l 295 48 l 299 47 l 299 0 l 16 0 l 16 47 l 20 49 l 25 51 q 41 59 47 74 l 50 85 l 50 90 l 51 108 l 51 403 z"},"Q":{"x_min":0,"x_max":956,"ha":956,"o":"m 468 -15 q 451 -17 443 -32 l 441 -34 q 445 -41 449 -41 l 457 -42 l 465 -43 l 486 -44 l 504 -45 l 547 -46 l 591 -49 q 616 -49 643 -54 q 654 -56 687 -64 l 708 -70 l 726 -75 q 784 -91 817 -91 q 842 -91 866 -86 q 890 -80 903 -76 q 916 -72 932 -63 l 952 -105 l 929 -119 l 884 -146 l 827 -177 q 690 -249 599 -249 q 555 -249 514 -236 q 474 -222 424 -192 l 385 -166 l 361 -148 l 352 -142 q 348 -138 332 -130 q 315 -123 299 -123 q 289 -123 283 -124 l 269 -125 l 264 -126 l 257 -127 l 248 -129 l 232 -88 l 393 -11 l 369 -8 q 216 11 123 110 q 30 209 30 344 q 30 431 71 516 q 122 624 218 681 q 314 738 455 738 q 657 738 778 636 q 899 533 899 371 q 899 320 888 273 q 864 171 785 95 q 726 38 660 12 q 595 -15 496 -15 z m 263 333 q 295 259 343 197 q 400 122 454 87 q 507 52 557 52 q 581 52 602 59 q 652 76 681 116 q 710 157 710 220 q 710 280 682 351 q 651 430 589 517 q 547 576 514 606 q 480 636 445 652 q 410 667 375 667 q 320 667 276 632 q 231 596 220 541 q 217 526 217 524 q 216 517 216 504 q 216 470 226 432 q 237 394 263 333 z"},"w":{"x_min":0,"x_max":800,"ha":800,"o":"m -14 409 l -14 454 l 279 454 l 279 409 l 275 408 q 256 401 256 380 q 256 366 263 348 l 333 158 l 370 247 l 333 348 q 317 393 290 406 l 285 408 l 280 409 l 280 454 l 576 454 l 576 410 l 572 409 q 555 401 555 382 q 555 371 563 349 l 632 158 l 705 348 q 713 370 713 381 q 713 400 695 408 l 691 409 l 691 454 l 814 454 l 814 410 l 810 408 l 806 406 q 792 399 782 386 q 773 374 763 348 l 630 0 l 459 0 l 399 165 l 332 0 l 162 0 l 37 347 q 21 392 -5 405 l -9 407 z"},"-":{"x_min":0,"x_max":338,"ha":338,"o":"m 11 193 l 11 335 l 327 335 l 327 193 z"},"E":{"x_min":0,"x_max":671,"ha":671,"o":"m 14 673 l 14 720 l 562 720 l 607 610 l 567 587 l 554 602 q 528 628 502 641 q 475 654 441 654 l 424 655 l 387 655 l 289 655 l 289 457 l 425 457 l 438 457 l 450 458 q 491 458 505 494 l 507 500 l 552 500 l 552 350 l 507 350 l 501 366 q 496 375 488 381 q 473 393 451 393 l 445 393 l 424 393 l 290 393 l 290 66 l 429 66 l 459 67 q 519 67 558 80 q 597 94 640 128 l 659 146 l 693 111 l 599 0 l 14 0 l 14 49 l 19 50 l 25 52 q 57 66 57 110 l 57 611 q 57 635 50 648 q 43 661 25 669 l 19 671 z"},"s":{"x_min":0,"x_max":517,"ha":517,"o":"m 4 134 l 39 156 l 47 146 l 57 134 q 88 98 122 76 q 155 54 189 46 q 203 42 219 40 q 235 38 247 38 q 264 38 277 42 q 290 45 298 52 q 313 64 313 80 q 313 101 288 117 l 264 133 l 256 138 q 223 158 200 173 q 191 179 163 198 q 95 246 79 260 q 63 273 53 291 q 35 323 35 354 q 35 391 60 420 q 84 448 128 460 q 142 464 161 467 q 180 470 204 470 q 214 470 236 469 q 258 468 271 468 l 300 463 l 304 463 l 332 457 l 345 455 q 349 454 352 454 q 355 454 356 454 q 368 454 377 466 l 379 469 l 423 469 l 468 363 l 432 336 l 425 344 l 417 352 l 399 369 q 351 408 301 414 l 292 415 l 284 415 l 277 415 l 266 414 q 257 413 251 409 q 245 406 245 398 q 245 393 250 388 q 254 383 265 376 l 293 359 l 299 355 l 331 336 l 354 322 l 373 310 q 446 262 470 228 q 495 195 495 146 q 495 72 450 30 q 404 -13 313 -13 q 298 -13 290 -13 q 267 -13 245 -12 q 223 -11 195 -7 l 174 -4 l 155 0 q 148 2 136 0 q 125 -3 119 -7 l 117 -9 l 114 -12 l 69 -12 z"},"l":{"x_min":0,"x_max":330,"ha":330,"o":"m 14 673 l 14 720 l 271 720 l 271 108 q 271 66 297 51 l 301 49 l 305 47 l 305 0 l 22 0 l 22 47 l 27 49 l 31 51 q 41 56 46 64 q 56 75 57 85 l 57 108 l 57 612 q 57 636 50 649 q 43 662 26 670 l 19 672 z"},"8":{"x_min":0,"x_max":654,"ha":654,"o":"m 188 371 l 165 387 q 129 415 108 442 q 86 469 77 497 q 64 538 64 568 q 64 637 120 679 q 175 721 281 721 q 290 721 308 722 q 325 723 333 723 q 346 723 359 723 q 377 721 385 721 q 489 721 540 684 q 590 647 590 585 q 590 565 584 542 q 570 490 511 458 l 495 450 l 503 446 l 515 439 q 619 375 634 275 q 636 265 637 244 q 638 224 638 222 q 638 113 561 50 q 484 -13 340 -13 q 311 -13 278 -10 q 213 -4 162 16 q 110 35 77 65 q 16 122 16 195 q 16 278 94 333 q 140 364 188 371 z m 363 545 l 377 558 l 380 562 q 397 582 397 606 q 397 645 359 658 l 346 661 q 342 662 339 662 q 334 662 332 662 q 312 662 300 650 q 287 639 287 621 q 287 610 290 602 q 293 593 300 582 l 308 573 l 314 568 l 335 548 l 353 532 z m 246 320 l 242 314 q 234 304 225 283 q 216 262 211 238 q 206 214 206 192 q 206 153 220 122 q 234 91 263 72 q 292 52 326 52 q 337 52 349 55 q 373 61 392 76 q 412 90 422 111 q 433 132 433 154 q 433 188 401 224 q 369 259 299 300 l 265 320 l 252 328 z"},"\\":{"x_min":0,"x_max":328,"ha":328,"o":"m 29 720 l 173 720 l 299 0 l 155 0 z"},"e":{"x_min":0,"x_max":657,"ha":657,"o":"m 635 224 l 258 224 q 258 212 261 200 q 264 187 266 180 q 282 123 326 90 q 371 57 427 57 q 455 57 478 64 q 502 71 528 89 q 539 97 549 106 q 559 114 568 125 l 581 141 l 586 149 l 591 157 l 629 134 q 599 64 527 25 q 455 -14 343 -14 q 316 -14 300 -12 q 284 -10 275 -10 q 154 2 92 64 q 29 127 29 230 q 29 340 94 403 q 163 470 290 470 q 298 470 312 471 q 327 472 333 472 q 346 472 358 472 q 371 471 384 471 q 492 471 553 421 q 610 374 629 282 l 634 245 l 635 234 z m 397 277 l 397 293 l 392 342 q 388 363 385 372 q 382 382 378 391 q 364 418 331 418 q 313 418 299 406 q 285 394 276 370 q 267 346 261 294 l 260 277 z"},"b":{"x_min":0,"x_max":635,"ha":635,"o":"m 22 0 l 22 48 l 26 49 l 31 51 q 47 58 52 70 q 58 83 58 110 l 58 615 l 58 635 l 55 649 q 48 666 34 673 l 29 675 l 25 676 l 25 720 l 308 720 l 308 676 l 303 674 l 299 672 q 285 665 279 653 q 273 641 273 615 l 273 454 l 313 454 q 434 454 502 414 q 571 375 596 296 q 601 281 604 260 q 607 239 607 223 q 607 133 540 72 q 473 12 353 2 l 307 0 z m 286 53 q 317 53 338 76 q 360 100 368 148 q 375 195 375 245 q 375 324 352 363 q 329 402 293 402 l 271 403 l 271 53 z"},"%":{"x_min":0,"x_max":886,"ha":886,"o":"m 140 0 l 659 720 l 745 720 l 227 0 z m 18 533 q 18 638 112 698 q 168 734 227 734 q 288 734 342 698 q 388 669 412 626 q 436 584 436 533 q 436 429 342 367 q 288 331 227 331 q 168 331 112 367 q 67 397 42 440 q 18 482 18 533 z m 450 194 q 450 298 544 360 q 600 396 659 396 q 720 396 774 360 q 868 298 868 194 q 868 91 774 29 q 720 -7 659 -7 q 600 -7 544 29 q 450 91 450 194 z m 244 376 q 261 381 272 396 q 282 411 282 437 q 282 594 273 643 q 264 692 231 692 q 222 692 204 688 q 186 683 178 653 q 169 623 169 533 q 169 443 181 408 q 193 373 223 373 q 232 373 244 376 z m 676 38 q 693 42 704 57 q 714 72 714 99 q 714 256 705 305 q 696 354 663 354 q 654 354 636 350 q 618 345 610 314 q 601 284 601 194 q 601 105 613 70 q 625 35 655 35 q 664 35 676 38 z"},"m":{"x_min":0,"x_max":891,"ha":891,"o":"m 14 407 l 14 454 l 272 454 l 272 423 l 287 431 q 319 447 346 456 q 374 466 395 469 q 403 469 412 470 q 422 471 426 471 q 493 471 526 427 l 531 421 l 535 415 l 555 428 q 579 442 607 453 q 652 470 695 470 q 759 470 798 433 q 837 396 837 333 l 838 299 l 838 109 l 838 87 q 839 75 847 64 q 857 54 863 51 l 868 49 l 873 48 l 873 0 l 591 0 l 591 47 l 595 49 l 599 51 q 622 63 622 85 l 623 89 l 623 108 l 623 295 q 623 345 614 364 q 605 384 583 384 q 577 383 574 383 l 567 381 l 563 379 l 559 376 l 556 375 l 555 108 l 555 90 l 555 85 q 558 62 581 51 l 585 49 l 589 47 l 589 0 l 309 0 l 309 47 l 312 49 l 316 51 q 340 65 340 108 l 340 299 l 340 317 l 339 332 q 339 356 326 368 q 314 379 294 376 l 287 374 l 282 372 l 277 370 l 274 369 l 272 367 l 272 108 q 272 64 299 50 l 303 48 l 307 47 l 307 0 l 25 0 l 25 48 l 29 49 l 34 51 q 56 63 56 86 l 57 93 l 57 104 l 57 346 q 57 370 50 383 q 43 396 26 403 l 19 405 z"},",":{"x_min":0,"x_max":252,"ha":252,"o":"m 0 -95 l 10 -90 q 54 -67 59 -29 q 60 -24 60 -14 q 60 6 32 39 q 21 53 17 77 q 16 85 16 89 q 16 110 26 133 q 43 174 85 190 q 104 198 127 198 q 171 198 202 168 q 234 137 234 91 q 234 34 193 -17 q 147 -75 57 -116 l 26 -129 z"},"n":{"x_min":0,"x_max":646,"ha":646,"o":"m 14 407 l 14 454 l 275 454 l 275 423 l 294 433 q 357 463 410 468 q 418 469 427 469 q 436 469 440 469 q 591 469 591 302 l 591 109 q 591 65 619 51 l 623 49 l 628 48 l 628 0 l 343 0 l 343 47 l 347 49 l 352 51 q 366 58 372 71 q 377 84 377 109 l 377 296 l 377 324 l 377 330 q 375 355 358 368 q 340 382 312 379 l 283 371 l 274 367 l 273 108 q 273 81 278 70 q 283 58 299 50 l 304 48 l 309 46 l 309 0 l 24 0 l 24 47 l 29 48 l 33 50 l 48 63 q 55 73 57 85 l 57 100 l 57 346 q 57 370 50 383 q 43 396 26 403 l 19 405 z"},"h":{"x_min":0,"x_max":647,"ha":647,"o":"m 14 673 l 14 720 l 274 720 l 274 424 l 294 434 q 359 464 414 469 q 421 469 430 470 q 438 470 440 470 q 512 470 552 429 q 592 388 592 313 l 592 108 l 592 88 q 594 73 600 64 q 607 56 616 51 l 621 48 l 625 47 l 625 0 l 339 0 l 339 48 l 344 49 l 348 51 q 361 58 368 68 q 374 79 374 97 l 375 109 l 375 291 l 375 305 l 374 325 q 374 351 360 366 q 346 381 323 381 q 306 381 286 372 l 280 370 l 275 367 l 275 109 l 275 90 l 275 86 l 278 75 q 283 61 297 52 l 301 50 l 305 48 l 305 0 l 24 0 l 24 47 l 30 49 q 56 57 56 85 l 57 95 l 57 108 l 57 612 q 57 636 50 649 q 43 662 26 670 l 19 672 z"},"z":{"x_min":0,"x_max":578,"ha":578,"o":"m 7 0 l 7 33 l 265 401 l 179 401 q 133 401 109 389 q 85 377 72 349 l 69 341 l 26 341 l 26 454 l 554 454 l 554 435 l 284 53 l 411 53 q 453 53 477 67 q 501 81 512 113 l 514 121 l 556 121 l 556 0 z"},"B":{"x_min":0,"x_max":672,"ha":672,"o":"m 11 0 l 11 46 l 17 48 l 24 50 q 59 63 59 107 l 59 611 q 59 656 28 669 l 22 671 l 16 672 l 16 720 l 289 720 l 333 719 q 391 719 422 712 q 452 705 488 690 q 523 674 544 640 q 566 606 566 566 q 566 521 538 487 q 501 442 430 423 l 413 420 l 433 417 q 564 397 623 304 q 654 255 654 200 q 654 141 619 92 q 584 42 523 21 q 491 10 454 5 q 416 0 350 0 z m 301 65 q 345 65 374 100 q 404 134 411 200 q 412 209 412 218 q 412 228 412 233 q 412 241 412 245 q 412 252 410 266 q 400 329 372 359 q 345 389 303 389 l 292 389 l 292 65 z m 303 451 q 326 451 342 472 q 357 492 361 535 q 361 560 360 574 q 358 588 354 601 q 335 654 298 654 l 293 654 l 293 451 z"},"K":{"x_min":0,"x_max":700,"ha":700,"o":"m 11 676 l 11 720 l 335 720 l 335 676 l 329 675 q 290 666 290 616 l 290 417 l 467 598 l 486 620 q 491 628 491 639 q 491 668 458 675 l 450 676 l 450 720 l 679 720 l 679 676 q 655 676 629 661 q 603 646 560 602 l 413 451 l 623 123 q 635 104 647 88 q 655 78 661 72 q 689 47 722 47 l 722 0 l 360 0 l 360 50 l 370 53 q 398 65 398 85 q 398 96 389 113 l 285 296 l 283 112 q 283 64 315 49 l 321 47 l 321 0 l 14 0 l 14 47 l 19 48 l 25 50 q 41 57 49 72 q 57 86 57 111 l 57 615 q 57 665 17 675 z"},"R":{"x_min":0,"x_max":679,"ha":679,"o":"m 11 0 l 11 46 l 17 48 l 23 50 q 58 63 58 108 l 58 615 q 58 660 25 672 l 18 674 l 12 676 l 12 720 l 349 720 q 478 720 536 691 q 593 662 615 589 q 624 559 624 531 q 624 471 586 428 q 547 384 476 365 l 462 361 q 487 341 508 314 q 529 288 553 245 q 568 217 578 190 q 588 162 600 110 q 607 79 621 60 q 635 41 657 32 q 674 26 693 26 l 693 -16 l 663 -18 q 497 -18 425 26 q 353 70 337 185 l 332 250 l 325 308 q 322 327 321 330 q 318 335 308 335 q 291 335 291 327 l 291 317 l 291 108 q 291 84 298 71 q 305 58 323 51 l 329 49 l 335 47 l 335 0 z m 304 398 q 315 398 328 403 q 350 412 363 436 q 376 459 379 490 q 382 521 382 530 q 382 536 382 542 q 380 550 380 554 q 374 602 354 628 q 333 653 302 656 l 291 657 l 291 398 z"},"T":{"x_min":0,"x_max":602,"ha":602,"o":"m -14 590 l 35 720 l 562 720 l 616 590 l 573 566 q 542 638 450 650 l 434 652 l 429 652 l 417 652 l 417 109 l 417 88 q 422 61 449 51 l 455 49 l 460 48 l 460 0 l 140 0 l 140 48 l 145 50 l 151 52 q 167 59 175 72 q 183 85 183 109 l 183 652 l 165 652 l 149 650 q 107 644 81 629 q 55 614 33 583 l 23 568 z"},"P":{"x_min":0,"x_max":684,"ha":684,"o":"m 11 0 l 11 48 l 17 50 l 23 52 q 43 60 50 72 q 57 84 57 110 l 57 616 q 57 645 44 661 q 33 672 18 675 l 12 676 l 12 720 l 371 720 l 413 719 q 531 719 601 674 q 666 632 684 557 q 693 519 693 486 q 693 383 612 324 q 532 265 379 265 l 289 265 l 289 110 q 289 86 296 73 q 303 60 321 53 l 328 50 l 333 49 l 333 0 z m 312 329 q 427 329 447 456 q 450 477 450 497 q 450 570 412 612 q 373 655 312 655 l 290 655 l 290 329 z"},"t":{"x_min":0,"x_max":372,"ha":372,"o":"m 4 403 l 4 454 l 63 454 l 63 595 q 100 598 132 614 q 163 629 214 671 l 232 687 l 276 687 l 276 454 l 358 454 l 358 403 l 276 403 l 276 135 l 276 116 l 278 94 q 281 73 303 73 q 307 73 313 75 l 322 80 q 331 86 335 93 l 338 98 l 340 104 l 342 109 l 343 113 l 383 95 q 376 46 334 16 q 293 -14 225 -14 q 216 -14 208 -14 q 196 -12 190 -12 q 61 3 61 139 l 61 403 z"},"M":{"x_min":0,"x_max":803,"ha":803,"o":"m 11 0 l 11 47 l 17 48 l 24 50 q 59 63 59 108 l 59 616 q 59 646 48 659 q 36 672 20 675 l 14 676 l 14 720 l 305 720 l 415 519 l 522 720 l 789 720 l 789 676 q 770 676 757 660 q 744 644 744 617 l 744 109 l 744 89 q 747 63 776 52 l 783 49 l 787 48 l 787 0 l 465 0 l 465 48 l 471 49 l 477 51 q 512 65 512 109 l 512 568 l 346 254 l 299 254 l 123 569 l 123 108 q 123 82 130 70 q 136 59 154 51 l 160 49 l 165 47 l 165 0 z"},"g":{"x_min":0,"x_max":587,"ha":587,"o":"m -7 -137 l 12 -97 l 22 -101 l 31 -104 q 65 -113 72 -114 q 79 -116 102 -120 q 126 -124 156 -126 q 185 -128 211 -128 q 230 -128 246 -126 q 262 -124 276 -122 q 323 -113 343 -99 q 376 -78 376 -44 q 376 -16 351 8 q 316 41 242 41 q 222 41 187 36 q 152 32 105 -1 l 95 -8 l 62 21 l 198 172 l 182 174 q 113 183 75 210 q 37 238 27 280 q 22 303 22 320 q 22 385 76 422 q 135 462 248 462 l 272 462 l 268 472 q 257 498 257 531 q 257 582 298 607 l 305 611 l 365 514 l 361 512 l 344 506 q 334 502 326 498 q 319 493 317 491 q 308 483 308 476 q 308 470 314 465 l 317 463 l 343 462 q 448 462 504 421 q 556 383 556 318 q 556 301 551 278 q 536 224 490 198 q 437 168 335 168 l 289 167 l 276 168 l 262 168 l 207 107 q 232 119 256 125 q 280 131 324 131 q 373 131 405 128 q 437 126 462 119 q 518 103 548 79 q 577 55 586 23 q 595 -9 595 -33 q 595 -103 534 -142 q 467 -185 334 -185 q 253 -185 177 -177 q 101 -169 26 -147 l 9 -141 z m 238 295 q 238 254 248 236 q 257 217 276 211 q 287 208 295 208 q 318 208 330 230 q 342 251 342 297 l 342 327 q 342 381 330 400 q 319 420 290 420 q 266 420 252 401 q 239 382 239 339 l 238 314 z"},"j":{"x_min":0,"x_max":319,"ha":319,"o":"m 4 -163 l 9 -160 l 14 -157 q 35 -144 44 -126 q 54 -107 54 -69 l 55 -46 l 57 -6 l 57 1 l 57 346 q 57 370 50 383 q 43 396 25 403 l 19 405 l 14 407 l 14 454 l 272 454 l 272 76 q 272 -24 231 -80 q 190 -136 84 -179 l 54 -190 l 43 -194 l 30 -197 z m 55 627 q 55 673 86 704 q 118 734 163 734 q 208 734 240 703 q 271 672 271 626 q 271 580 240 548 q 208 517 163 517 q 118 517 86 548 q 55 580 55 627 z"},"i":{"x_min":0,"x_max":328,"ha":328,"o":"m 14 407 l 14 454 l 271 454 l 271 108 l 272 97 q 274 80 281 69 q 288 58 298 51 l 302 49 l 306 47 l 306 0 l 23 0 l 23 48 l 28 49 l 32 51 q 40 55 48 64 q 55 74 57 86 l 57 108 l 57 346 q 57 370 50 383 q 43 396 26 403 l 19 405 z m 56 627 q 56 671 88 702 q 119 734 164 734 q 208 734 240 703 q 273 672 273 626 q 273 581 242 550 q 210 518 165 518 q 120 518 88 550 q 56 582 56 627 z"},"y":{"x_min":0,"x_max":554,"ha":554,"o":"m -22 409 l -22 454 l 286 454 l 286 410 l 282 408 q 266 401 266 383 q 266 370 275 347 l 364 135 l 452 347 q 460 366 460 381 q 460 401 441 408 l 436 410 l 436 454 l 576 454 l 576 410 l 571 408 l 564 406 q 538 396 524 372 l 521 365 l 513 347 l 332 -86 q 324 -105 324 -120 q 324 -141 346 -150 l 351 -151 l 351 -194 l 204 -194 l 204 -151 l 211 -150 l 217 -148 q 248 -138 264 -112 l 274 -85 l 308 0 l 186 0 l 39 346 l 29 368 l 28 371 q 22 382 12 391 q 1 400 -11 405 l -17 407 z"},".":{"x_min":0,"x_max":252,"ha":252,"o":"m 18 91 q 18 135 50 167 q 81 199 127 199 q 171 199 202 168 q 234 136 234 90 q 234 44 202 13 q 171 -18 127 -18 q 79 -18 48 15 q 18 48 18 91 z"},"p":{"x_min":0,"x_max":635,"ha":635,"o":"m 22 -194 l 22 -146 l 27 -144 l 31 -142 q 45 -135 51 -122 q 57 -110 57 -84 l 57 348 q 57 392 33 406 l 28 408 l 24 409 l 24 454 l 305 454 q 442 454 513 410 q 584 365 602 274 q 606 254 606 229 q 606 140 541 77 q 476 14 361 2 l 316 0 l 272 0 l 272 -84 q 272 -115 282 -129 q 289 -137 298 -142 l 303 -144 l 307 -146 l 307 -194 z m 286 54 q 324 54 346 86 q 367 117 373 187 q 373 205 373 224 q 373 242 374 261 q 374 336 350 370 q 326 403 285 403 l 271 403 l 271 53 z"},"X":{"x_min":0,"x_max":710,"ha":710,"o":"m -22 0 l -22 45 l -16 46 l -10 48 q 19 57 41 82 l 49 91 l 61 107 l 236 334 l 65 611 q 49 636 34 650 q 18 665 0 671 l -7 673 l -13 674 l -13 720 l 355 720 l 355 673 l 350 673 q 326 670 326 648 q 326 637 331 627 l 339 612 l 416 486 l 519 612 q 530 626 534 634 q 538 643 538 650 q 538 670 512 673 l 506 673 l 506 720 l 686 720 l 686 672 l 680 671 l 673 669 q 656 664 644 657 q 633 650 620 634 l 610 623 l 600 611 l 453 428 l 648 109 q 670 72 689 58 q 708 44 732 44 l 732 0 l 369 0 l 369 44 l 374 46 q 392 53 392 69 q 392 84 376 109 l 271 275 l 142 108 l 125 81 q 122 73 122 68 q 122 48 148 45 l 154 45 l 154 0 z"},"*":{"x_min":0,"x_max":383,"ha":383,"o":"m 118 647 l 159 589 l 164 586 l 168 588 l 167 593 l 138 659 q 134 667 134 678 q 134 693 143 704 q 163 728 191 728 q 221 728 239 704 q 249 693 249 676 q 249 667 245 659 l 216 593 l 215 588 l 219 586 l 224 589 l 265 647 q 281 668 308 665 q 332 661 347 643 q 362 625 362 602 q 362 589 358 578 q 353 566 344 558 q 334 551 321 551 l 248 545 l 242 544 q 244 538 247 538 l 321 531 q 347 528 357 503 q 361 494 361 480 q 361 456 346 438 q 330 420 305 416 q 279 411 264 434 l 223 495 q 221 497 216 498 l 216 491 l 245 421 q 249 413 249 403 q 249 387 236 374 q 224 360 210 357 q 197 354 192 354 q 188 354 173 357 q 158 360 146 374 q 134 388 134 404 q 134 413 138 421 l 167 491 l 168 496 q 162 497 160 495 l 119 434 q 104 411 78 416 q 54 420 38 438 q 22 457 22 481 q 22 494 26 503 q 36 528 62 531 l 135 538 q 138 539 140 540 q 141 541 142 542 l 135 545 l 62 551 q 50 551 40 558 q 30 566 25 578 q 20 591 20 603 q 20 626 36 644 q 51 661 75 665 q 102 668 118 647 z"},"Y":{"x_min":0,"x_max":650,"ha":650,"o":"m -29 675 l -29 720 l 336 720 l 336 674 l 332 673 q 305 664 305 647 q 305 635 320 612 l 419 463 l 517 611 q 533 634 533 647 q 533 659 515 669 l 508 672 l 504 674 l 504 720 l 679 720 l 679 674 l 672 673 l 665 671 q 643 665 626 652 q 610 639 593 612 l 439 376 l 439 109 q 439 85 446 72 q 453 59 471 51 l 478 49 l 483 48 l 483 0 l 161 0 l 161 47 l 166 48 l 173 51 q 209 63 209 108 l 209 363 l 45 612 l 31 633 l 29 636 l 20 646 q -1 666 -18 672 l -23 674 z"},"c":{"x_min":0,"x_max":491,"ha":491,"o":"m 372 471 l 453 379 l 418 352 l 412 357 l 404 364 l 388 377 q 367 392 352 400 q 336 408 326 410 q 315 411 303 411 q 231 411 231 316 q 231 300 234 278 q 237 256 242 240 q 246 224 257 200 q 291 128 340 92 q 388 55 447 55 q 461 55 477 58 q 493 61 499 62 l 513 66 l 502 26 q 466 8 429 -2 q 392 -11 344 -11 q 325 -11 316 -11 q 306 -11 302 -11 q 292 -11 287 -11 q 278 -11 262 -9 q 178 0 127 30 q 76 61 50 116 q 29 160 29 207 q 29 273 68 332 q 108 391 186 431 q 223 450 264 460 q 306 471 354 471 z"},"!":{"x_min":0,"x_max":285,"ha":285,"o":"m 36 91 q 36 136 67 168 q 98 200 142 200 q 187 200 220 168 q 252 137 252 92 q 252 48 220 16 q 189 -15 143 -15 q 99 -15 68 16 q 36 46 36 91 z m 179 224 l 106 224 l 105 241 l 104 257 q 100 302 91 342 q 82 381 63 431 l 62 435 l 41 488 q 28 519 23 542 q 18 565 18 586 l 21 615 q 31 676 62 705 q 92 734 142 734 q 242 734 264 615 l 267 586 q 267 561 263 544 q 259 527 244 488 l 230 453 l 221 431 q 209 402 195 343 q 186 307 185 300 q 181 278 181 257 l 179 241 z"},"/":{"x_min":0,"x_max":393,"ha":393,"o":"m -3 -8 l 320 729 l 396 729 l 71 -8 z"},"[":{"x_min":0,"x_max":271,"ha":271,"o":"m 50 -93 l 50 814 l 271 814 l 271 720 l 208 720 l 208 0 l 271 0 l 271 -93 z"},"6":{"x_min":0,"x_max":654,"ha":654,"o":"m 540 706 l 586 706 l 586 579 l 539 579 q 530 598 514 613 q 498 628 470 640 q 449 648 432 650 q 414 653 406 653 q 352 653 320 613 q 287 573 272 484 q 266 445 266 403 l 270 406 l 278 410 q 313 429 342 439 q 372 449 401 449 q 409 450 418 450 q 427 450 431 450 q 526 450 578 393 q 630 336 630 231 q 630 118 568 52 q 505 -13 383 -13 q 192 -13 113 44 q 26 107 26 266 q 26 479 116 601 q 203 719 346 719 q 369 719 392 716 q 416 713 442 706 l 471 697 q 483 693 494 690 q 505 688 510 688 q 522 688 530 693 q 538 698 540 706 z m 266 170 q 266 150 268 138 q 269 127 273 110 q 281 67 292 52 q 303 38 326 38 q 348 38 360 54 q 372 70 382 114 q 384 124 386 136 q 387 148 387 160 l 387 226 q 387 234 387 237 q 387 278 383 293 q 374 332 366 347 q 358 362 346 367 q 334 372 324 372 q 288 372 274 304 q 270 284 268 272 q 266 260 266 241 l 265 206 z"},"r":{"x_min":0,"x_max":406,"ha":406,"o":"m 14 407 l 14 454 l 275 454 l 275 408 l 281 414 l 291 423 q 337 462 385 469 q 392 470 400 470 q 409 471 413 471 l 413 325 l 370 325 l 369 331 l 366 336 l 361 344 q 348 365 330 365 q 274 373 274 305 l 274 108 q 274 65 300 51 l 305 48 l 309 47 l 309 0 l 26 0 l 26 46 l 31 48 l 34 50 l 40 55 q 55 70 57 85 l 57 92 l 57 346 q 57 370 50 383 q 43 396 26 403 l 19 405 z"},"2":{"x_min":0,"x_max":654,"ha":654,"o":"m 23 0 l 23 24 q 23 100 58 160 q 94 221 189 301 l 207 317 l 273 375 q 319 417 336 449 q 361 495 361 534 q 361 545 360 551 q 354 603 322 632 q 290 661 237 661 q 230 661 222 660 q 214 659 209 659 q 136 648 102 594 l 98 588 l 94 581 l 44 581 l 44 710 l 94 710 l 95 707 l 96 704 q 104 689 123 689 q 126 689 136 691 l 161 699 q 205 713 232 719 q 260 725 290 725 q 442 725 525 671 q 604 620 604 530 q 604 507 598 481 q 584 423 538 382 q 488 337 394 305 l 359 294 l 329 284 l 297 274 q 276 267 254 257 q 238 250 210 235 l 188 222 l 170 212 l 190 217 l 199 218 l 210 219 q 216 220 222 220 q 230 220 234 220 q 310 220 414 168 q 448 152 474 144 q 499 135 519 135 q 541 135 568 142 l 583 145 l 590 148 l 595 149 l 601 151 l 624 107 l 615 100 l 605 91 q 512 14 376 -3 q 363 -5 340 -5 q 316 -5 303 -6 q 286 -6 278 -6 q 253 -6 224 -1 q 196 4 154 18 l 137 23 l 124 28 l 115 30 q 112 31 109 31 q 105 31 104 31 q 82 31 73 8 l 71 3 l 70 0 z"},"{":{"x_min":0,"x_max":367,"ha":367,"o":"m 29 360 q 58 360 77 380 q 96 400 96 432 l 96 742 q 96 790 122 816 q 148 842 195 842 l 338 842 l 338 756 l 325 756 q 295 756 282 745 q 269 734 269 708 l 269 454 q 269 390 207 366 l 180 360 l 207 354 q 235 343 252 319 q 269 295 269 266 l 269 12 q 269 -36 325 -36 l 338 -36 l 338 -122 l 195 -122 q 148 -122 122 -96 q 96 -70 96 -22 l 96 288 q 96 318 77 339 q 58 360 29 360 z"},"9":{"x_min":0,"x_max":654,"ha":654,"o":"m 115 0 l 68 0 l 68 128 l 116 128 q 132 90 185 67 q 194 63 202 60 q 211 58 226 56 q 242 54 249 54 q 302 54 334 94 q 367 134 382 222 q 386 242 387 260 q 388 277 388 303 l 385 301 l 376 296 q 315 263 253 257 q 141 257 84 309 q 24 364 24 476 q 24 588 87 654 q 150 720 271 720 q 463 720 542 663 q 629 600 629 441 q 629 227 539 105 q 453 -12 308 -12 q 285 -12 262 -9 q 238 -6 212 1 l 184 9 q 153 19 144 18 q 119 18 115 0 z m 271 413 q 280 374 288 359 q 295 344 309 338 q 314 336 319 335 q 324 334 329 334 q 366 334 380 402 q 383 414 384 422 q 385 431 389 466 l 389 536 l 382 596 q 374 639 362 654 q 351 669 328 669 q 306 669 294 653 q 282 637 273 592 q 270 580 268 558 q 266 535 266 500 q 266 441 271 413 z"}," ":{"x_min":0,"x_max":290,"ha":290,"o":""},"I":{"x_min":0,"x_max":347,"ha":347,"o":"m 11 0 l 11 47 l 16 48 l 22 51 q 43 58 50 72 q 57 87 57 122 l 57 611 q 57 636 50 648 q 44 660 25 668 l 19 671 l 14 673 l 14 720 l 333 720 l 333 673 l 327 672 q 289 661 289 612 l 289 109 q 289 64 321 51 l 327 49 l 332 48 l 332 0 z"},"H":{"x_min":0,"x_max":761,"ha":761,"o":"m 11 0 l 11 47 l 17 48 l 23 50 q 60 63 60 108 l 60 612 l 59 633 q 54 659 26 670 l 19 672 l 13 673 l 13 720 l 336 720 l 336 672 l 330 671 l 324 669 q 289 654 289 611 l 289 458 l 472 458 l 472 611 q 472 654 437 669 l 431 671 l 425 672 l 425 720 l 748 720 l 748 673 l 742 672 l 735 670 q 716 663 708 650 q 701 637 701 612 l 701 108 l 702 97 q 707 62 737 50 l 745 48 l 750 47 l 750 0 l 428 0 l 428 47 l 433 48 l 439 51 q 472 63 472 108 l 472 389 l 289 389 l 289 108 q 289 63 322 51 l 328 48 l 333 47 l 333 0 z"},"4":{"x_min":0,"x_max":653,"ha":653,"o":"m -1 209 l -1 260 l 359 719 l 545 719 l 545 298 l 636 298 q 637 294 637 285 q 637 255 618 230 q 599 205 562 190 l 551 186 l 542 184 l 542 108 q 542 64 576 50 l 582 48 l 587 47 l 587 0 l 265 0 l 265 47 l 270 48 l 277 51 q 312 63 312 108 l 312 158 q 280 162 252 168 q 223 174 186 186 q 148 197 128 202 q 107 208 90 211 q 72 214 48 214 q 40 214 32 214 q 22 212 17 212 l 9 211 z m 313 298 l 313 559 l 109 298 z"},"~":{"x_min":0,"x_max":519,"ha":519,"o":"m 29 265 l 30 293 q 38 377 74 420 q 109 463 165 463 q 192 463 229 450 l 314 418 l 334 411 q 343 407 352 407 q 370 407 380 438 l 384 455 l 385 464 l 490 464 l 488 437 q 481 353 446 310 q 411 267 354 267 q 336 267 320 270 q 305 274 289 280 l 205 311 l 184 319 q 172 323 168 323 q 149 323 139 292 q 135 282 135 275 l 134 265 z"},"D":{"x_min":0,"x_max":777,"ha":777,"o":"m 11 0 l 11 46 l 17 47 l 24 50 q 44 57 51 70 q 58 82 58 110 l 58 611 q 58 637 51 649 q 44 661 24 669 l 16 671 l 12 672 l 12 720 l 296 720 q 511 720 629 626 q 747 532 747 371 q 747 334 739 289 q 718 171 635 96 q 583 48 510 24 q 438 0 336 0 z m 308 63 q 387 63 438 123 q 494 188 506 311 q 509 343 509 371 q 509 505 450 582 q 395 654 308 654 l 290 655 l 290 63 z"},"^":{"x_min":0,"x_max":525,"ha":525,"o":"m 29 149 l 262 571 l 496 149 l 332 149 l 262 295 l 193 149 z"},"0":{"x_min":0,"x_max":653,"ha":653,"o":"m 18 352 q 18 518 94 613 q 166 703 296 716 q 306 717 327 717 q 347 717 357 716 q 487 703 559 613 q 635 518 635 352 q 635 187 559 92 q 487 2 357 -11 q 347 -12 340 -12 q 332 -13 327 -13 q 319 -13 311 -13 q 301 -11 296 -11 q 166 2 94 92 q 18 187 18 352 z m 259 216 q 259 146 267 113 q 272 91 285 74 q 302 50 327 50 q 352 50 368 72 q 384 95 389 128 q 394 161 394 216 q 394 245 395 281 q 396 317 397 352 q 397 407 396 436 q 395 464 394 489 q 394 557 388 586 q 381 614 369 631 q 352 655 327 655 q 302 655 286 632 q 269 610 264 577 q 259 544 259 489 q 259 460 258 424 q 257 387 256 352 q 256 297 257 268 q 258 240 259 216 z"},"F":{"x_min":0,"x_max":599,"ha":599,"o":"m 11 0 l 11 47 l 16 48 l 23 50 q 40 57 48 70 q 56 84 56 108 l 56 613 q 56 656 26 671 l 20 673 l 15 674 l 15 720 l 583 720 l 628 610 l 586 587 l 578 598 q 529 656 445 656 l 287 656 l 287 443 l 448 443 q 486 443 502 450 q 518 457 527 478 l 529 484 l 571 484 l 571 335 l 527 335 l 522 346 q 514 366 500 372 q 486 379 449 379 l 285 379 l 285 108 l 285 88 l 286 85 q 289 61 317 50 l 324 48 l 329 46 l 329 0 z"},"`":{"x_min":0,"x_max":262,"ha":262,"o":"m 17 653 l 123 653 q 141 653 146 648 q 150 644 156 633 l 180 572 q 187 553 212 498 l 169 498 l 52 580 q 12 608 3 616 q -6 624 -6 632 q -6 653 17 653 z"},"k":{"x_min":0,"x_max":626,"ha":626,"o":"m 14 673 l 14 720 l 273 720 l 273 292 l 385 367 l 400 379 q 408 387 408 394 q 408 402 400 407 l 396 409 l 389 410 l 381 412 l 381 454 l 621 454 l 621 412 l 587 411 q 551 406 531 397 l 528 396 l 463 356 l 405 321 l 557 107 q 603 41 655 41 l 655 0 l 328 0 l 328 50 l 336 50 q 352 52 360 60 q 368 68 368 78 q 368 81 366 87 l 358 99 l 263 242 l 265 108 q 265 56 298 51 l 306 51 l 306 0 l 24 0 l 24 47 l 29 48 q 57 57 57 85 l 57 91 l 57 612 q 57 636 50 649 q 43 662 26 670 l 19 672 z"},"u":{"x_min":0,"x_max":648,"ha":648,"o":"m 11 407 l 11 454 l 269 454 l 269 152 l 270 139 q 270 70 322 70 q 332 70 340 71 q 348 72 363 79 l 369 82 l 374 84 l 374 346 q 374 370 367 383 q 360 396 342 403 l 336 405 l 331 407 l 331 454 l 589 454 l 589 107 l 590 97 q 596 63 618 50 l 622 48 l 626 46 l 626 0 l 374 0 l 374 29 q 343 12 310 2 q 258 -14 212 -14 q 138 -14 96 29 q 54 72 54 146 l 54 346 q 54 370 47 383 q 40 396 23 403 l 16 405 z"},"]":{"x_min":0,"x_max":271,"ha":271,"o":"m 0 -93 l 0 0 l 63 0 l 63 720 l 0 720 l 0 814 l 221 814 l 221 -93 z"},"U":{"x_min":0,"x_max":723,"ha":723,"o":"m 14 673 l 14 720 l 335 720 l 335 673 l 330 672 l 323 669 q 290 656 290 612 l 290 249 q 290 178 322 134 q 354 91 412 79 q 439 73 463 73 q 529 73 564 117 q 599 161 599 243 l 599 611 q 599 635 592 648 q 585 661 568 669 l 562 671 l 557 672 l 557 720 l 709 720 l 709 673 l 703 672 l 697 670 q 666 657 666 612 l 666 254 q 666 128 612 66 q 558 4 435 -12 q 426 -14 408 -14 q 391 -14 380 -15 l 332 -15 q 184 -15 118 49 q 56 109 56 232 l 56 612 q 56 638 50 650 q 43 661 25 669 l 19 671 z"},"o":{"x_min":0,"x_max":680,"ha":680,"o":"m 29 229 q 29 338 98 404 q 168 469 300 469 l 380 469 q 508 469 582 403 q 653 340 653 236 q 653 206 645 171 q 626 88 562 41 q 493 -10 383 -10 l 297 -10 q 168 -10 98 56 q 29 121 29 229 z m 265 192 q 265 169 267 159 q 269 149 275 123 q 286 77 300 58 q 315 40 340 40 q 365 40 380 58 q 395 76 405 123 q 408 135 412 155 q 415 175 415 191 q 416 199 416 208 q 416 216 416 221 q 416 233 416 245 q 415 257 415 269 q 411 314 402 346 q 393 379 384 393 q 369 416 340 416 q 313 416 296 393 q 287 379 278 346 q 269 314 265 270 l 263 228 z"},"N":{"x_min":0,"x_max":586,"ha":586,"o":"m 11 677 l 11 720 l 284 720 l 465 496 l 465 613 q 465 643 456 657 q 447 671 426 676 l 421 676 l 421 720 l 575 720 l 575 676 q 550 676 536 651 q 530 637 530 614 l 530 110 q 530 84 536 72 q 543 60 561 52 l 568 50 l 573 48 l 573 0 l 417 0 l 417 47 l 420 48 l 430 52 q 452 62 458 72 q 465 83 465 110 l 464 129 l 120 559 l 120 110 q 120 86 127 73 q 134 60 151 52 l 158 50 l 163 48 l 163 0 l 12 0 l 12 48 l 17 49 l 23 51 q 55 66 55 109 l 55 613 q 55 665 17 676 z"},"G":{"x_min":0,"x_max":913,"ha":913,"o":"m 698 720 l 745 720 l 745 601 l 697 601 q 666 632 629 649 q 585 669 533 669 q 526 669 518 670 q 509 670 506 670 q 398 670 338 595 q 274 514 274 358 q 274 207 331 125 q 384 49 473 49 q 480 49 490 50 q 499 50 515 53 q 553 61 580 82 q 606 102 624 130 q 642 157 646 179 q 651 201 651 218 q 651 287 572 287 l 544 287 l 544 334 l 895 334 l 892 310 q 866 149 743 67 q 620 -15 413 -15 q 256 -2 166 66 q 75 135 43 263 q 38 282 35 306 q 32 329 32 352 q 32 476 106 576 q 168 659 264 696 q 359 734 503 734 q 527 734 546 732 q 564 729 593 723 l 613 719 l 630 715 l 648 710 l 654 709 l 662 709 q 680 709 691 715 l 694 717 z"},"q":{"x_min":0,"x_max":638,"ha":638,"o":"m 330 454 l 616 454 l 616 409 l 611 407 l 607 405 q 581 391 581 347 l 581 -85 l 582 -105 l 585 -119 q 592 -136 605 -142 l 610 -145 l 614 -146 l 614 -194 l 330 -194 l 330 -147 l 335 -145 l 339 -143 q 363 -130 363 -86 l 363 0 l 322 0 q 199 0 130 42 q 60 85 37 170 q 28 202 28 232 q 28 300 70 356 q 111 411 185 438 q 210 447 242 450 q 273 454 330 454 z m 263 268 q 262 258 262 248 q 261 239 261 226 q 261 213 261 201 q 263 190 263 186 q 276 51 351 51 l 364 50 l 364 403 l 353 403 q 313 403 292 372 q 270 342 263 268 z"},"d":{"x_min":0,"x_max":634,"ha":634,"o":"m 305 454 l 366 454 l 366 612 q 366 636 359 649 q 352 662 334 670 l 328 672 l 323 673 l 323 720 l 577 720 l 577 109 q 577 66 604 51 l 608 49 l 612 48 l 612 0 l 314 0 l 262 3 q 163 13 109 56 q 55 99 35 183 q 28 211 28 242 q 28 337 99 394 q 174 454 305 454 z m 261 185 q 268 125 292 92 q 317 59 352 54 l 364 52 l 364 402 l 354 402 q 317 402 289 359 q 258 311 258 233 q 258 211 261 185 z"},"1":{"x_min":0,"x_max":654,"ha":654,"o":"m 155 608 l 155 655 q 282 655 384 721 l 448 721 l 448 109 q 448 63 478 51 l 484 49 l 489 48 l 489 0 l 169 0 l 169 47 l 174 49 l 180 51 q 215 65 215 118 l 215 534 q 215 568 198 588 q 181 608 155 608 z"},"5":{"x_min":0,"x_max":653,"ha":653,"o":"m 28 0 l 28 129 l 77 129 l 85 122 q 107 100 120 90 q 134 80 149 71 q 199 43 246 43 q 293 43 326 70 q 359 97 370 145 l 374 169 q 375 182 376 192 q 376 201 376 208 q 376 298 326 344 q 276 390 185 390 q 148 387 120 375 l 113 372 l 105 369 l 54 369 l 108 719 l 552 719 l 572 719 q 599 719 599 696 q 599 687 592 669 q 582 643 548 617 q 525 598 489 588 q 453 577 402 577 q 387 577 368 578 q 349 580 337 581 q 304 585 266 594 q 227 602 176 618 l 157 624 l 128 429 l 171 441 q 214 452 256 457 q 298 462 334 462 q 456 462 530 408 q 600 357 615 265 q 617 255 618 242 q 619 230 619 219 q 619 115 543 52 q 462 -15 320 -15 q 282 -15 266 -14 q 249 -12 218 -7 l 164 4 l 140 11 l 130 14 q 125 16 116 16 q 97 16 82 4 l 78 0 z"}}}
